{
	"asset":{
		"version":"2.0",
		"generator":"Created using the official Cinema 4D glTF Exporter 1.000x284978"
	},
	"scenes":[{
		"nodes":[0]
	}],
	"nodes":[{
		"name":"Part1.CATPart",
		"translation":[-3.20965838432312,
		-0.30279794335365298,
		0.0],
		"rotation":[0.7071067690849304,
		0.0,
		0.0,
		-0.7071067690849304],
		"scale":[1.0,
		1.0,
		1.0],
		"children":[1,
		2]
	},
	{
		"name":"PartBody",
		"mesh":0
	},
	{
		"name":"ThickSurface.1",
		"mesh":1
	}],
	"meshes":[{
		"name":"PartBody",
		"primitives":[{
			"attributes":{
				"POSITION":1,
				"NORMAL":2,
				"TEXCOORD_0":3
			},
			"indices":0,
			"material":0
		}]
	},
	{
		"name":"ThickSurface.1",
		"primitives":[{
			"attributes":{
				"POSITION":5,
				"NORMAL":6,
				"TEXCOORD_0":7
			},
			"indices":4,
			"material":1
		}]
	}],
	"accessors":[{
		"bufferView":0,
		"type":"SCALAR",
		"componentType":5123,
		"count":1152,
		"byteOffset":0,
		"min":[0],
		"max":[443]
	},
	{
		"bufferView":1,
		"type":"VEC3",
		"componentType":5126,
		"count":444,
		"byteOffset":0,
		"min":[2.173168182373047,
		0.001946962671354413,
		0.0],
		"max":[23.929996490478517,
		59.5,
		9.462698936462403]
	},
	{
		"bufferView":1,
		"type":"VEC3",
		"componentType":5126,
		"count":444,
		"byteOffset":12,
		"min":[-1.0,
		-0.9996563196182251,
		-1.0],
		"max":[0.9999688267707825,
		1.0,
		1.0]
	},
	{
		"bufferView":1,
		"type":"VEC2",
		"componentType":5126,
		"count":444,
		"byteOffset":24,
		"min":[-6.670358709826019e-14,
		-4.636176560929642e-14],
		"max":[1.0,
		1.0]
	},
	{
		"bufferView":2,
		"type":"SCALAR",
		"componentType":5123,
		"count":4824,
		"byteOffset":0,
		"min":[0],
		"max":[940]
	},
	{
		"bufferView":3,
		"type":"VEC3",
		"componentType":5126,
		"count":941,
		"byteOffset":0,
		"min":[2.183002471923828,
		6.0,
		2.1998953819274904],
		"max":[23.923147201538087,
		27.13802146911621,
		20.81353759765625]
	},
	{
		"bufferView":3,
		"type":"VEC3",
		"componentType":5126,
		"count":941,
		"byteOffset":12,
		"min":[-0.999250054359436,
		-0.9823125600814819,
		-0.9998437762260437],
		"max":[0.999250054359436,
		0.9985625743865967,
		0.9738125205039978]
	},
	{
		"bufferView":3,
		"type":"VEC2",
		"componentType":5126,
		"count":941,
		"byteOffset":24,
		"min":[-6.579307409992907e-7,
		-1.5108224715731922e-7],
		"max":[1.0000011920928956,
		1.0000383853912354]
	}],
	"bufferViews":[{
		"buffer":0,
		"byteOffset":0,
		"byteLength":2304,
		"target":34963
	},
	{
		"buffer":0,
		"byteOffset":2304,
		"byteLength":14208,
		"target":34962,
		"byteStride":32
	},
	{
		"buffer":1,
		"byteOffset":0,
		"byteLength":9648,
		"target":34963
	},
	{
		"buffer":1,
		"byteOffset":9648,
		"byteLength":30112,
		"target":34962,
		"byteStride":32
	}],
	"buffers":[{
		"uri":"data:application/octet-stream;base64,",
		"byteLength":16512
	},
	{
		"uri":"data:application/octet-stream;base64,",
		"byteLength":39760
	}],
	"materials":[{
		"pbrMetallicRoughness":{
			"baseColorFactor":[0.20000000000000005,
			0.16000000000000004,
			0.16000000000000004,
			1.0],
			"metallicFactor":0.5,
			"roughnessFactor":0.7
		},
		"emissiveFactor":[0.0,
		0.0,
		0.0],
		"alphaMode":"OPAQUE",
		"doubleSided":false,
		"name":""
	},
	{
		"pbrMetallicRoughness":{
			"baseColorFactor":[0.27030000000000006,
			0.51,
			0.34620499999999995,
			1.0],
			"metallicFactor":1.0,
			"roughnessFactor":0.1
		},
		"emissiveFactor":[0.0,
		0.0,
		0.0],
		"alphaMode":"OPAQUE",
		"doubleSided":false,
		"name":"PBR"
	}]
}