{
	"scenes":[{
		"nodes":[0]
	}],
	"asset":{
		"version":"2.0",
		"generator":"Created using the official Cinema 4D glTF Exporter 1.000x284978"
	},
	"nodes":[{
		"name":"Part2.CATPart",
		"translation":[0.0,
		0.0,
		30.0],
		"rotation":[0.7071067690849304,
		0.0,
		0.0,
		-0.7071067690849304],
		"scale":[1.0,
		1.0,
		1.0],
		"children":[1,
		2,
		3,
		4,
		5,
		6,
		7]
	},
	{
		"name":"PartBody",
		"mesh":0
	},
	{
		"name":"Join.2",
		"mesh":1
	},
	{
		"name":"EdgeFillet.7",
		"mesh":2
	},
	{
		"name":"ThickSurface.7",
		"mesh":3
	},
	{
		"name":"CloseSurface.4",
		"mesh":4
	},
	{
		"name":"ThickSurface.2",
		"mesh":5
	},
	{
		"name":"CloseSurface.6",
		"mesh":6
	}],
	"meshes":[{
		"name":"PartBody",
		"primitives":[{
			"attributes":{
				"POSITION":1,
				"NORMAL":2,
				"TEXCOORD_0":3
			},
			"indices":0,
			"material":0
		}]
	},
	{
		"name":"Join.2",
		"primitives":[{
			"attributes":{
				"POSITION":5,
				"NORMAL":6,
				"TEXCOORD_0":7
			},
			"indices":4,
			"material":1
		}]
	},
	{
		"name":"EdgeFillet.7",
		"primitives":[{
			"attributes":{
				"POSITION":9,
				"NORMAL":10,
				"TEXCOORD_0":11
			},
			"indices":8,
			"material":2
		}]
	},
	{
		"name":"ThickSurface.7",
		"primitives":[{
			"attributes":{
				"POSITION":13,
				"NORMAL":14,
				"TEXCOORD_0":15
			},
			"indices":12,
			"material":3
		}]
	},
	{
		"name":"CloseSurface.4",
		"primitives":[{
			"attributes":{
				"POSITION":17,
				"NORMAL":18,
				"TEXCOORD_0":19
			},
			"indices":16,
			"material":4
		}]
	},
	{
		"name":"ThickSurface.2",
		"primitives":[{
			"attributes":{
				"POSITION":21,
				"NORMAL":22,
				"TEXCOORD_0":23
			},
			"indices":20,
			"material":5
		}]
	},
	{
		"name":"CloseSurface.6",
		"primitives":[{
			"attributes":{
				"POSITION":25,
				"NORMAL":26,
				"TEXCOORD_0":27
			},
			"indices":24,
			"material":6
		}]
	}],
	"accessors":[{
		"bufferView":0,
		"byteOffset":0,
		"type":"SCALAR",
		"componentType":5123,
		"count":3408,
		"min":[0],
		"max":[1088]
	},
	{
		"bufferView":1,
		"byteOffset":0,
		"type":"VEC3",
		"componentType":5126,
		"count":1089,
		"min":[2.173168182373047,
		0.008073272183537484,
		-1.77635686587003e-16],
		"max":[23.929990768432618,
		58.84296417236328,
		10.1028470993042]
	},
	{
		"bufferView":1,
		"byteOffset":12,
		"type":"VEC3",
		"componentType":5126,
		"count":1089,
		"min":[-1.0,
		-0.9987813234329224,
		-1.0],
		"max":[0.9999688267707825,
		1.0,
		1.0]
	},
	{
		"bufferView":1,
		"byteOffset":24,
		"type":"VEC2",
		"componentType":5126,
		"count":1089,
		"min":[0.0,
		0.0],
		"max":[1.0,
		1.0]
	},
	{
		"bufferView":2,
		"byteOffset":0,
		"type":"SCALAR",
		"componentType":5123,
		"count":8490,
		"min":[0],
		"max":[2057]
	},
	{
		"bufferView":3,
		"byteOffset":0,
		"type":"VEC3",
		"componentType":5126,
		"count":2058,
		"min":[0.9604133367538452,
		0.36438021063804629,
		2.2952680587768556],
		"max":[23.937719345092775,
		56.400001525878909,
		24.510692596435548]
	},
	{
		"bufferView":3,
		"byteOffset":12,
		"type":"VEC3",
		"componentType":5126,
		"count":2058,
		"min":[-0.9999688267707825,
		-0.9988125562667847,
		-1.0],
		"max":[0.9997813105583191,
		1.0,
		0.963562548160553]
	},
	{
		"bufferView":3,
		"byteOffset":24,
		"type":"VEC2",
		"componentType":5126,
		"count":2058,
		"min":[0.05021809786558151,
		0.00004709970380645245],
		"max":[0.9365509152412415,
		0.9458949565887451]
	},
	{
		"bufferView":4,
		"byteOffset":0,
		"type":"SCALAR",
		"componentType":5123,
		"count":8811,
		"min":[0],
		"max":[2142]
	},
	{
		"bufferView":5,
		"byteOffset":0,
		"type":"VEC3",
		"componentType":5126,
		"count":2143,
		"min":[0.8582248687744141,
		0.2701272666454315,
		2.2072110176086427],
		"max":[24.03672981262207,
		56.49999237060547,
		24.594541549682618]
	},
	{
		"bufferView":5,
		"byteOffset":12,
		"type":"VEC3",
		"componentType":5126,
		"count":2143,
		"min":[-0.9999688267707825,
		-0.999000072479248,
		-0.9280312657356262],
		"max":[0.9996875524520874,
		1.0,
		0.9642500281333923]
	},
	{
		"bufferView":5,
		"byteOffset":24,
		"type":"VEC2",
		"componentType":5126,
		"count":2143,
		"min":[-0.7962525486946106,
		-0.18994200229644776],
		"max":[1.1007417440414429,
		0.8676239252090454]
	},
	{
		"bufferView":6,
		"byteOffset":0,
		"type":"SCALAR",
		"componentType":5123,
		"count":57942,
		"min":[0],
		"max":[10235]
	},
	{
		"bufferView":7,
		"byteOffset":0,
		"type":"VEC3",
		"componentType":5126,
		"count":10236,
		"min":[1.4009974002838135,
		0.775024950504303,
		2.68740177154541],
		"max":[23.525287628173829,
		56.004798889160159,
		24.527484893798829]
	},
	{
		"bufferView":7,
		"byteOffset":12,
		"type":"VEC3",
		"componentType":5126,
		"count":10236,
		"min":[-1.0,
		-1.0,
		-1.0],
		"max":[1.0,
		1.0,
		1.0]
	},
	{
		"bufferView":7,
		"byteOffset":24,
		"type":"VEC2",
		"componentType":5126,
		"count":10236,
		"min":[-0.00029188033659011126,
		-0.0013484330847859383],
		"max":[1.0394647121429444,
		1.00197434425354]
	},
	{
		"bufferView":8,
		"byteOffset":0,
		"type":"SCALAR",
		"componentType":5123,
		"count":2604,
		"min":[0],
		"max":[701]
	},
	{
		"bufferView":9,
		"byteOffset":0,
		"type":"VEC3",
		"componentType":5126,
		"count":702,
		"min":[2.3831233978271486,
		41.5,
		1.2999999523162842],
		"max":[19.4057559967041,
		58.645538330078128,
		8.099326133728028]
	},
	{
		"bufferView":9,
		"byteOffset":12,
		"type":"VEC3",
		"componentType":5126,
		"count":702,
		"min":[-0.9999688267707825,
		-1.0,
		-0.9999688267707825],
		"max":[0.9999688267707825,
		0.9994375705718994,
		0.8405000567436218]
	},
	{
		"bufferView":9,
		"byteOffset":24,
		"type":"VEC2",
		"componentType":5126,
		"count":702,
		"min":[-1.1102230246251566e-16,
		-4.440892098500626e-16],
		"max":[1.0,
		1.0]
	},
	{
		"bufferView":10,
		"byteOffset":0,
		"type":"SCALAR",
		"componentType":5123,
		"count":1206,
		"min":[0],
		"max":[343]
	},
	{
		"bufferView":11,
		"byteOffset":0,
		"type":"VEC3",
		"componentType":5126,
		"count":344,
		"min":[6.654877662658691,
		14.800000190734864,
		12.074604988098145],
		"max":[17.226133346557618,
		40.25665283203125,
		30.050334930419923]
	},
	{
		"bufferView":11,
		"byteOffset":12,
		"type":"VEC3",
		"componentType":5126,
		"count":344,
		"min":[-0.8245313167572022,
		-0.9865313172340393,
		-0.9417500495910645],
		"max":[0.8245313167572022,
		0.9106875658035278,
		0.9418125152587891]
	},
	{
		"bufferView":11,
		"byteOffset":24,
		"type":"VEC2",
		"componentType":5126,
		"count":344,
		"min":[0.0,
		0.0],
		"max":[1.0,
		1.0]
	},
	{
		"bufferView":12,
		"byteOffset":0,
		"type":"SCALAR",
		"componentType":5123,
		"count":4224,
		"min":[0],
		"max":[801]
	},
	{
		"bufferView":13,
		"byteOffset":0,
		"type":"VEC3",
		"componentType":5126,
		"count":802,
		"min":[1.6330187320709229,
		35.45466232299805,
		17.06718635559082],
		"max":[20.778554916381837,
		54.226318359375,
		25.050067901611329]
	},
	{
		"bufferView":13,
		"byteOffset":12,
		"type":"VEC3",
		"componentType":5126,
		"count":802,
		"min":[-0.999750018119812,
		-0.9913750290870667,
		-0.9998750686645508],
		"max":[0.9980313181877136,
		0.999625027179718,
		0.9978438019752502]
	},
	{
		"bufferView":13,
		"byteOffset":24,
		"type":"VEC2",
		"componentType":5126,
		"count":802,
		"min":[1.1102230246251566e-16,
		4.440892098500626e-16],
		"max":[1.0,
		1.0]
	}],
	"bufferViews":[{
		"buffer":0,
		"byteOffset":0,
		"byteLength":6816,
		"target":34963
	},
	{
		"buffer":0,
		"byteOffset":6816,
		"byteLength":34848,
		"target":34962,
		"byteStride":32
	},
	{
		"buffer":1,
		"byteOffset":0,
		"byteLength":16980,
		"target":34963
	},
	{
		"buffer":1,
		"byteOffset":16980,
		"byteLength":65856,
		"target":34962,
		"byteStride":32
	},
	{
		"buffer":2,
		"byteOffset":0,
		"byteLength":17622,
		"target":34963
	},
	{
		"buffer":2,
		"byteOffset":17624,
		"byteLength":68576,
		"target":34962,
		"byteStride":32
	},
	{
		"buffer":3,
		"byteOffset":0,
		"byteLength":115884,
		"target":34963
	},
	{
		"buffer":3,
		"byteOffset":115884,
		"byteLength":327552,
		"target":34962,
		"byteStride":32
	},
	{
		"buffer":4,
		"byteOffset":0,
		"byteLength":5208,
		"target":34963
	},
	{
		"buffer":4,
		"byteOffset":5208,
		"byteLength":22464,
		"target":34962,
		"byteStride":32
	},
	{
		"buffer":5,
		"byteOffset":0,
		"byteLength":2412,
		"target":34963
	},
	{
		"buffer":5,
		"byteOffset":2412,
		"byteLength":11008,
		"target":34962,
		"byteStride":32
	},
	{
		"buffer":6,
		"byteOffset":0,
		"byteLength":8448,
		"target":34963
	},
	{
		"buffer":6,
		"byteOffset":8448,
		"byteLength":25664,
		"target":34962,
		"byteStride":32
	}],
	"buffers":[{
		"uri":"data:application/octet-stream;base64,",
		"byteLength":41664
	},
	{
		"uri":"data:application/octet-stream;base64,",
		"byteLength":82836
	},
	{
		"uri":"data:application/octet-stream;base64,",
		"byteLength":86200
	},
	{
		"uri":"data:application/octet-stream;base64,",
		"byteLength":443436
	},
	{
		"uri":"data:application/octet-stream;base64,",
		"byteLength":27672
	},
	{
		"uri":"data:application/octet-stream;base64,",
		"byteLength":13420
	},
	{
		"uri":"data:application/octet-stream;base64,",
		"byteLength":34112
	}],
	"images":[{
		"uri":"data:image/jpeg;base64,"
	},
	{
		"uri":"data:image/jpeg;base64,"
	},
	{
		"uri":"data:image/jpeg;base64,"
	},
	{
		"uri":"data:image/jpeg;base64,"
	}],
	"samplers":[{
		"magFilter":9729,
		"minFilter":9729,
		"wrapS":10497,
		"wrapT":10497
	},
	{
		"magFilter":9729,
		"minFilter":9729,
		"wrapS":10497,
		"wrapT":10497
	},
	{
		"magFilter":9729,
		"minFilter":9729,
		"wrapS":10497,
		"wrapT":10497
	},
	{
		"magFilter":9729,
		"minFilter":9729,
		"wrapS":10497,
		"wrapT":10497
	},
	{
		"magFilter":9729,
		"minFilter":9729,
		"wrapS":10497,
		"wrapT":10497
	}],
	"textures":[{
		"sampler":0,
		"source":0
	},
	{
		"sampler":1,
		"source":1
	},
	{
		"sampler":2,
		"source":0
	},
	{
		"sampler":3,
		"source":2
	},
	{
		"sampler":4,
		"source":3
	}],
	"materials":[{
		"pbrMetallicRoughness":{
			"baseColorFactor":[0.2,
			0.2,
			0.2,
			1.0],
			"metallicFactor":0.5,
			"roughnessFactor":0.5
		},
		"occlusionTexture":{
			"index":0,
			"strength":1.0
		},
		"emissiveFactor":[0.0,
		0.0,
		0.0],
		"alphaMode":"OPAQUE",
		"doubleSided":false,
		"name":"PBR.1"
	},
	{
		"pbrMetallicRoughness":{
			"baseColorFactor":[0.13999999999999997,
			0.7,
			0.6533333333333334,
			1.0],
			"metallicFactor":1.0,
			"roughnessFactor":0.3
		},
		"occlusionTexture":{
			"index":1,
			"strength":1.0
		},
		"emissiveFactor":[0.0,
		0.0,
		0.0],
		"alphaMode":"OPAQUE",
		"doubleSided":false,
		"name":".4"
	},
	{
		"pbrMetallicRoughness":{
			"baseColorFactor":[0.9,
			0.5999999999999994,
			0.17999999999999997,
			0.30000000000000007],
			"metallicFactor":1.0,
			"roughnessFactor":0.3
		},
		"emissiveFactor":[0.0,
		0.0,
		0.0],
		"alphaMode":"BLEND",
		"doubleSided":false,
		"name":".1"
	},
	{
		"pbrMetallicRoughness":{
			"baseColorFactor":[0.81,
			0.9,
			0.8924999999999999,
			1.0],
			"metallicFactor":1.0,
			"roughnessFactor":0.5
		},
		"occlusionTexture":{
			"index":2,
			"strength":1.0
		},
		"emissiveFactor":[0.0,
		0.0,
		0.0],
		"alphaMode":"OPAQUE",
		"doubleSided":false,
		"name":""
	},
	{
		"pbrMetallicRoughness":{
			"baseColorFactor":[0.1,
			0.1,
			0.1,
			1.0],
			"metallicFactor":1.0,
			"roughnessFactor":0.5
		},
		"occlusionTexture":{
			"index":3,
			"strength":1.0
		},
		"emissiveFactor":[0.0,
		0.0,
		0.0],
		"alphaMode":"OPAQUE",
		"doubleSided":false,
		"name":"PBR.2"
	},
	{
		"pbrMetallicRoughness":{
			"baseColorFactor":[0.2,
			0.2,
			0.2,
			1.0],
			"metallicFactor":0.5,
			"roughnessFactor":0.5000000000000001
		},
		"occlusionTexture":{
			"index":4,
			"strength":1.0
		},
		"emissiveFactor":[0.0,
		0.0,
		0.0],
		"alphaMode":"OPAQUE",
		"doubleSided":false,
		"name":".3"
	},
	{
		"pbrMetallicRoughness":{
			"baseColorFactor":[0.9,
			0.7875000000000002,
			0.45,
			1.0],
			"metallicFactor":0.0,
			"roughnessFactor":0.5
		},
		"emissiveFactor":[0.0,
		0.0,
		0.0],
		"alphaMode":"OPAQUE",
		"doubleSided":false,
		"name":".5"
	}]
}