{
	"asset":{
		"version":"2.0",
		"generator":"Created using the official Cinema 4D glTF Exporter 1.000x284978"
	},
	"scenes":[{
		"nodes":[0]
	}],
	"textures":[{
		"sampler":0,
		"source":0
	},
	{
		"sampler":1,
		"source":1
	},
	{
		"sampler":2,
		"source":0
	},
	{
		"sampler":3,
		"source":2
	},
	{
		"sampler":4,
		"source":3
	}],
	"nodes":[{
		"scale":[1.0,
		1.0,
		1.0],
		"name":"Part2.CATPart",
		"translation":[0.0,
		0.0,
		30.0],
		"rotation":[0.7071067690849304,
		0.0,
		0.0,
		-0.7071067690849304],
		"children":[1,
		2,
		3,
		4,
		5,
		6,
		7]
	},
	{
		"scale":[1.0,
		1.0,
		1.0],
		"name":"_X2_51434EF6672C9AD4_X0_",
		"translation":[0.0,
		0.0,
		0.0],
		"rotation":[0.0,
		0.0,
		0.0,
		-1.0],
		"mesh":0
	},
	{
		"scale":[1.0,
		1.0,
		1.0],
		"name":"_X2_978B76AE_X0_2",
		"translation":[0.0,
		0.0,
		0.0],
		"rotation":[0.0,
		0.0,
		0.0,
		-1.0],
		"mesh":1
	},
	{
		"scale":[1.0,
		1.0,
		1.0],
		"name":"EdgeFillet.7",
		"translation":[0.0,
		0.0,
		0.0],
		"rotation":[0.0,
		0.0,
		0.0,
		-1.0],
		"mesh":2
	},
	{
		"scale":[1.0,
		1.0,
		1.0],
		"name":"ThickSurface.7",
		"translation":[0.0,
		0.0,
		0.0],
		"rotation":[0.0,
		0.0,
		0.0,
		-1.0],
		"mesh":3
	},
	{
		"scale":[1.0,
		1.0,
		1.0],
		"name":"CloseSurface.4",
		"translation":[0.0,
		0.0,
		0.0],
		"rotation":[0.0,
		0.0,
		0.0,
		-1.0],
		"mesh":4
	},
	{
		"scale":[1.0,
		1.0,
		1.0],
		"name":"ThickSurface.2",
		"translation":[0.0,
		0.0,
		0.0],
		"rotation":[0.0,
		0.0,
		0.0,
		-1.0],
		"mesh":5
	},
	{
		"scale":[1.0,
		1.0,
		1.0],
		"name":"CloseSurface.6",
		"translation":[0.0,
		0.0,
		0.0],
		"rotation":[0.0,
		0.0,
		0.0,
		-1.0],
		"mesh":6
	}],
	"meshes":[{
		"name":"_X2_51434EF6672C9AD4_X0_",
		"primitives":[{
			"attributes":{
				"POSITION":1,
				"NORMAL":2,
				"TEXCOORD_0":3
			},
			"indices":0,
			"material":0
		}]
	},
	{
		"name":"_X2_978B76AE_X0_2",
		"primitives":[{
			"attributes":{
				"POSITION":5,
				"NORMAL":6,
				"TEXCOORD_0":7
			},
			"indices":4,
			"material":1
		}]
	},
	{
		"name":"EdgeFillet.7",
		"primitives":[{
			"attributes":{
				"POSITION":9,
				"NORMAL":10,
				"TEXCOORD_0":11
			},
			"indices":8,
			"material":2
		}]
	},
	{
		"name":"ThickSurface.7",
		"primitives":[{
			"attributes":{
				"POSITION":13,
				"NORMAL":14,
				"TEXCOORD_0":15
			},
			"indices":12,
			"material":3
		}]
	},
	{
		"name":"CloseSurface.4",
		"primitives":[{
			"attributes":{
				"POSITION":17,
				"NORMAL":18,
				"TEXCOORD_0":19
			},
			"indices":16,
			"material":4
		}]
	},
	{
		"name":"ThickSurface.2",
		"primitives":[{
			"attributes":{
				"POSITION":21,
				"NORMAL":22,
				"TEXCOORD_0":23
			},
			"indices":20,
			"material":5
		}]
	},
	{
		"name":"CloseSurface.6",
		"primitives":[{
			"attributes":{
				"POSITION":25,
				"NORMAL":26,
				"TEXCOORD_0":27
			},
			"indices":24,
			"material":6
		}]
	}],
	"accessors":[{
		"bufferView":0,
		"type":"SCALAR",
		"componentType":5123,
		"count":5202,
		"byteOffset":0,
		"min":[0],
		"max":[1448]
	},
	{
		"bufferView":1,
		"type":"VEC3",
		"componentType":5126,
		"count":1449,
		"byteOffset":0,
		"min":[2.173168182373047,
		-4.276803355907077e-9,
		-5.684341970784096e-15],
		"max":[23.929988861083986,
		58.85435104370117,
		10.106817245483399]
	},
	{
		"bufferView":1,
		"type":"VEC3",
		"componentType":5126,
		"count":1449,
		"byteOffset":12,
		"min":[-1.0,
		-1.0,
		-1.0],
		"max":[0.9999688267707825,
		0.9998750686645508,
		1.0]
	},
	{
		"bufferView":1,
		"type":"VEC2",
		"componentType":5126,
		"count":1449,
		"byteOffset":24,
		"min":[0.0,
		5.551115123125783e-17],
		"max":[0.9995962977409363,
		1.0]
	},
	{
		"bufferView":2,
		"type":"SCALAR",
		"componentType":5123,
		"count":18186,
		"byteOffset":0,
		"min":[0],
		"max":[4672]
	},
	{
		"bufferView":3,
		"type":"VEC3",
		"componentType":5126,
		"count":4673,
		"byteOffset":0,
		"min":[0.9604133367538452,
		0.36438021063804629,
		2.295271158218384],
		"max":[23.95553970336914,
		56.400001525878909,
		24.52242088317871]
	},
	{
		"bufferView":3,
		"type":"VEC3",
		"componentType":5126,
		"count":4673,
		"byteOffset":12,
		"min":[-0.9999688267707825,
		-1.0,
		-1.0],
		"max":[0.9999688267707825,
		1.0,
		1.0]
	},
	{
		"bufferView":3,
		"type":"VEC2",
		"componentType":5126,
		"count":4673,
		"byteOffset":24,
		"min":[-0.3682363033294678,
		-0.32977575063705447],
		"max":[1.102866530418396,
		1.3274667263031006]
	},
	{
		"bufferView":4,
		"type":"SCALAR",
		"componentType":5123,
		"count":8811,
		"byteOffset":0,
		"min":[0],
		"max":[2425]
	},
	{
		"bufferView":5,
		"type":"VEC3",
		"componentType":5126,
		"count":2426,
		"byteOffset":0,
		"min":[0.8582248687744141,
		0.2701272666454315,
		2.2072110176086427],
		"max":[24.03672981262207,
		56.49999237060547,
		24.594541549682618]
	},
	{
		"bufferView":5,
		"type":"VEC3",
		"componentType":5126,
		"count":2426,
		"byteOffset":12,
		"min":[-0.9999688267707825,
		-0.999000072479248,
		-0.9280312657356262],
		"max":[0.9996875524520874,
		1.0,
		0.9642500281333923]
	},
	{
		"bufferView":5,
		"type":"VEC2",
		"componentType":5126,
		"count":2426,
		"byteOffset":24,
		"min":[0.04899238422513008,
		0.000918660662136972],
		"max":[0.9384371042251587,
		0.9998855590820313]
	},
	{
		"bufferView":6,
		"type":"SCALAR",
		"componentType":5123,
		"count":57942,
		"byteOffset":0,
		"min":[0],
		"max":[12153]
	},
	{
		"bufferView":7,
		"type":"VEC3",
		"componentType":5126,
		"count":12154,
		"byteOffset":0,
		"min":[1.4009974002838135,
		0.775024950504303,
		2.68740177154541],
		"max":[23.525287628173829,
		56.004798889160159,
		24.527484893798829]
	},
	{
		"bufferView":7,
		"type":"VEC3",
		"componentType":5126,
		"count":12154,
		"byteOffset":12,
		"min":[-1.0,
		-1.0,
		-1.0],
		"max":[1.0,
		1.0,
		1.0]
	},
	{
		"bufferView":7,
		"type":"VEC2",
		"componentType":5126,
		"count":12154,
		"byteOffset":24,
		"min":[-2.220446049250313e-16,
		0.00008653037366457283],
		"max":[0.9995819330215454,
		0.999534010887146]
	},
	{
		"bufferView":8,
		"type":"SCALAR",
		"componentType":5123,
		"count":2604,
		"byteOffset":0,
		"min":[0],
		"max":[701]
	},
	{
		"bufferView":9,
		"type":"VEC3",
		"componentType":5126,
		"count":702,
		"byteOffset":0,
		"min":[2.3831233978271486,
		41.5,
		1.2999999523162842],
		"max":[19.4057559967041,
		58.645538330078128,
		8.099326133728028]
	},
	{
		"bufferView":9,
		"type":"VEC3",
		"componentType":5126,
		"count":702,
		"byteOffset":12,
		"min":[-0.9999688267707825,
		-1.0,
		-0.9999688267707825],
		"max":[0.9999688267707825,
		0.9994375705718994,
		0.8405000567436218]
	},
	{
		"bufferView":9,
		"type":"VEC2",
		"componentType":5126,
		"count":702,
		"byteOffset":24,
		"min":[-1.1102230246251566e-16,
		-4.440892098500626e-16],
		"max":[1.0,
		1.0]
	},
	{
		"bufferView":10,
		"type":"SCALAR",
		"componentType":5123,
		"count":1206,
		"byteOffset":0,
		"min":[0],
		"max":[343]
	},
	{
		"bufferView":11,
		"type":"VEC3",
		"componentType":5126,
		"count":344,
		"byteOffset":0,
		"min":[6.654877662658691,
		14.800000190734864,
		12.074604988098145],
		"max":[17.226133346557618,
		40.25665283203125,
		30.050334930419923]
	},
	{
		"bufferView":11,
		"type":"VEC3",
		"componentType":5126,
		"count":344,
		"byteOffset":12,
		"min":[-0.8245313167572022,
		-0.9865313172340393,
		-0.9417500495910645],
		"max":[0.8245313167572022,
		0.9106875658035278,
		0.9418125152587891]
	},
	{
		"bufferView":11,
		"type":"VEC2",
		"componentType":5126,
		"count":344,
		"byteOffset":24,
		"min":[0.0,
		0.0],
		"max":[1.0,
		1.0]
	},
	{
		"bufferView":12,
		"type":"SCALAR",
		"componentType":5123,
		"count":4224,
		"byteOffset":0,
		"min":[0],
		"max":[801]
	},
	{
		"bufferView":13,
		"type":"VEC3",
		"componentType":5126,
		"count":802,
		"byteOffset":0,
		"min":[1.6330187320709229,
		35.45466232299805,
		17.06718635559082],
		"max":[20.778554916381837,
		54.226318359375,
		25.050067901611329]
	},
	{
		"bufferView":13,
		"type":"VEC3",
		"componentType":5126,
		"count":802,
		"byteOffset":12,
		"min":[-0.999750018119812,
		-0.9913750290870667,
		-0.9998750686645508],
		"max":[0.9980313181877136,
		0.999625027179718,
		0.9978438019752502]
	},
	{
		"bufferView":13,
		"type":"VEC2",
		"componentType":5126,
		"count":802,
		"byteOffset":24,
		"min":[1.1102230246251566e-16,
		4.440892098500626e-16],
		"max":[1.0,
		1.0]
	}],
	"materials":[{
		"pbrMetallicRoughness":{
			"baseColorFactor":[0.2,
			0.2,
			0.2,
			1.0],
			"metallicFactor":0.5,
			"roughnessFactor":0.5
		},
		"occlusionTexture":{
			"index":0,
			"strength":1.0
		},
		"emissiveFactor":[0.0,
		0.0,
		0.0],
		"alphaMode":"OPAQUE",
		"doubleSided":true,
		"name":"PBR.1"
	},
	{
		"pbrMetallicRoughness":{
			"baseColorFactor":[0.13999999999999997,
			0.7,
			0.6533333333333334,
			1.0],
			"metallicFactor":1.0,
			"roughnessFactor":0.3
		},
		"occlusionTexture":{
			"index":1,
			"strength":1.0
		},
		"emissiveFactor":[0.0,
		0.0,
		0.0],
		"alphaMode":"OPAQUE",
		"doubleSided":true,
		"name":"材质"
	},
	{
		"pbrMetallicRoughness":{
			"baseColorFactor":[0.9,
			0.5999999999999994,
			0.17999999999999997,
			0.30000000000000007],
			"metallicFactor":1.0,
			"roughnessFactor":0.3
		},
		"emissiveFactor":[0.0,
		0.0,
		0.0],
		"alphaMode":"BLEND",
		"doubleSided":true,
		"name":"材质.1"
	},
	{
		"pbrMetallicRoughness":{
			"baseColorFactor":[0.81,
			0.9,
			0.8924999999999999,
			1.0],
			"metallicFactor":1.0,
			"roughnessFactor":0.5
		},
		"occlusionTexture":{
			"index":2,
			"strength":1.0
		},
		"emissiveFactor":[0.0,
		0.0,
		0.0],
		"alphaMode":"OPAQUE",
		"doubleSided":true,
		"name":"內側"
	},
	{
		"pbrMetallicRoughness":{
			"baseColorFactor":[0.1,
			0.1,
			0.1,
			1.0],
			"metallicFactor":1.0,
			"roughnessFactor":0.5
		},
		"occlusionTexture":{
			"index":3,
			"strength":1.0
		},
		"emissiveFactor":[0.0,
		0.0,
		0.0],
		"alphaMode":"OPAQUE",
		"doubleSided":true,
		"name":"PBR.2"
	},
	{
		"pbrMetallicRoughness":{
			"baseColorFactor":[0.2,
			0.2,
			0.2,
			1.0],
			"metallicFactor":0.5,
			"roughnessFactor":0.5000000000000001
		},
		"occlusionTexture":{
			"index":4,
			"strength":1.0
		},
		"emissiveFactor":[0.0,
		0.0,
		0.0],
		"alphaMode":"OPAQUE",
		"doubleSided":true,
		"name":"材质.3"
	},
	{
		"pbrMetallicRoughness":{
			"baseColorFactor":[0.9,
			0.7875000000000002,
			0.45,
			1.0],
			"metallicFactor":0.0,
			"roughnessFactor":0.5
		},
		"emissiveFactor":[0.0,
		0.0,
		0.0],
		"alphaMode":"OPAQUE",
		"doubleSided":true,
		"name":"材质.5"
	}],
	"bufferViews":[{
		"buffer":0,
		"byteOffset":0,
		"byteLength":10404,
		"target":34963
	},
	{
		"buffer":0,
		"byteOffset":10404,
		"byteLength":46368,
		"target":34962,
		"byteStride":32
	},
	{
		"buffer":1,
		"byteOffset":0,
		"byteLength":36372,
		"target":34963
	},
	{
		"buffer":1,
		"byteOffset":36372,
		"byteLength":149536,
		"target":34962,
		"byteStride":32
	},
	{
		"buffer":2,
		"byteOffset":0,
		"byteLength":17622,
		"target":34963
	},
	{
		"buffer":2,
		"byteOffset":17624,
		"byteLength":77632,
		"target":34962,
		"byteStride":32
	},
	{
		"buffer":3,
		"byteOffset":0,
		"byteLength":115884,
		"target":34963
	},
	{
		"buffer":3,
		"byteOffset":115884,
		"byteLength":388928,
		"target":34962,
		"byteStride":32
	},
	{
		"buffer":4,
		"byteOffset":0,
		"byteLength":5208,
		"target":34963
	},
	{
		"buffer":4,
		"byteOffset":5208,
		"byteLength":22464,
		"target":34962,
		"byteStride":32
	},
	{
		"buffer":5,
		"byteOffset":0,
		"byteLength":2412,
		"target":34963
	},
	{
		"buffer":5,
		"byteOffset":2412,
		"byteLength":11008,
		"target":34962,
		"byteStride":32
	},
	{
		"buffer":6,
		"byteOffset":0,
		"byteLength":8448,
		"target":34963
	},
	{
		"buffer":6,
		"byteOffset":8448,
		"byteLength":25664,
		"target":34962,
		"byteStride":32
	}],
	"buffers":[{
		"uri":"data:application/octet-stream;base64,",
		"byteLength":56772
	},
	{
		"uri":"data:application/octet-stream;base64,",
		"byteLength":185908
	},
	{
		"uri":"data:application/octet-stream;base64,",
		"byteLength":95256
	},
	{
		"uri":"data:application/octet-stream;base64,",
		"byteLength":504812
	},
	{
		"uri":"data:application/octet-stream;base64,",
		"byteLength":27672
	},
	{
		"uri":"data:application/octet-stream;base64,",
		"byteLength":13420
	},
	{
		"uri":"data:application/octet-stream;base64,",
		"byteLength":34112
	}],
	"images":[{
		"uri":"data:image/jpeg;base64,"
	},
	{
		"uri":"data:image/jpeg;base64,"
	},
	{
		"uri":"data:image/jpeg;base64,"
	},
	{
		"uri":"data:image/jpeg;base64,"
	}],
	"samplers":[{
		"magFilter":9729,
		"minFilter":9729,
		"wrapS":10497,
		"wrapT":10497
	},
	{
		"magFilter":9729,
		"minFilter":9729,
		"wrapS":10497,
		"wrapT":10497
	},
	{
		"magFilter":9729,
		"minFilter":9729,
		"wrapS":10497,
		"wrapT":10497
	},
	{
		"magFilter":9729,
		"minFilter":9729,
		"wrapS":10497,
		"wrapT":10497
	},
	{
		"magFilter":9729,
		"minFilter":9729,
		"wrapS":10497,
		"wrapT":10497
	}]
}