{
	"nodes":[{
		"name":"Part2.CATPart",
		"translation":[0.0,
		0.0,
		30.0],
		"rotation":[0.7071067690849304,
		0.0,
		0.0,
		-0.7071067690849304],
		"scale":[1.0,
		1.0,
		1.0],
		"children":[1,
		10,
		11,
		12,
		13,
		14,
		15,
		16,
		17]
	},
	{
		"name":"鞋帶",
		"children":[2,
		3,
		4,
		5,
		6,
		7,
		8,
		9]
	},
	{
		"name":"CloseSurface.8(1)",
		"mesh":0
	},
	{
		"name":"CloseSurface.8(2)",
		"mesh":1
	},
	{
		"name":"CloseSurface.8(3)",
		"mesh":2
	},
	{
		"name":"CloseSurface.8(4)",
		"mesh":3
	},
	{
		"name":"CloseSurface.8(5)",
		"mesh":4
	},
	{
		"name":"CloseSurface.8(6)",
		"mesh":5
	},
	{
		"name":"CloseSurface.8(7)",
		"mesh":6
	},
	{
		"name":"CloseSurface.8(8)",
		"mesh":7
	},
	{
		"name":"鞋底",
		"mesh":8
	},
	{
		"name":"鞋底-2",
		"mesh":9
	},
	{
		"name":"鞋皮",
		"mesh":10
	},
	{
		"name":"外薄殼",
		"mesh":11
	},
	{
		"name":"內側",
		"mesh":12
	},
	{
		"name":"後飾",
		"mesh":13
	},
	{
		"name":"上掀蓋",
		"mesh":14
	},
	{
		"name":"小飾",
		"mesh":15
	}],
	"scenes":[{
		"nodes":[0]
	}],
	"asset":{
		"version":"2.0",
		"generator":"Created using the official Cinema 4D glTF Exporter 1.000x284978"
	},
	"meshes":[{
		"name":"CloseSurface.8(1)",
		"primitives":[{
			"attributes":{
				"POSITION":1,
				"NORMAL":2,
				"TEXCOORD_0":3
			},
			"indices":0,
			"material":0
		}]
	},
	{
		"name":"CloseSurface.8(2)",
		"primitives":[{
			"attributes":{
				"POSITION":5,
				"NORMAL":6,
				"TEXCOORD_0":7
			},
			"indices":4,
			"material":0
		}]
	},
	{
		"name":"CloseSurface.8(3)",
		"primitives":[{
			"attributes":{
				"POSITION":9,
				"NORMAL":10,
				"TEXCOORD_0":11
			},
			"indices":8,
			"material":0
		}]
	},
	{
		"name":"CloseSurface.8(4)",
		"primitives":[{
			"attributes":{
				"POSITION":13,
				"NORMAL":14,
				"TEXCOORD_0":15
			},
			"indices":12,
			"material":0
		}]
	},
	{
		"name":"CloseSurface.8(5)",
		"primitives":[{
			"attributes":{
				"POSITION":17,
				"NORMAL":18,
				"TEXCOORD_0":19
			},
			"indices":16,
			"material":0
		}]
	},
	{
		"name":"CloseSurface.8(6)",
		"primitives":[{
			"attributes":{
				"POSITION":21,
				"NORMAL":22,
				"TEXCOORD_0":23
			},
			"indices":20,
			"material":0
		}]
	},
	{
		"name":"CloseSurface.8(7)",
		"primitives":[{
			"attributes":{
				"POSITION":25,
				"NORMAL":26,
				"TEXCOORD_0":27
			},
			"indices":24,
			"material":0
		}]
	},
	{
		"name":"CloseSurface.8(8)",
		"primitives":[{
			"attributes":{
				"POSITION":29,
				"NORMAL":30,
				"TEXCOORD_0":31
			},
			"indices":28,
			"material":0
		}]
	},
	{
		"name":"鞋底",
		"primitives":[{
			"attributes":{
				"POSITION":33,
				"NORMAL":34,
				"TEXCOORD_0":35
			},
			"indices":32,
			"material":1
		}]
	},
	{
		"name":"鞋底-2",
		"primitives":[{
			"attributes":{
				"POSITION":37,
				"NORMAL":38,
				"TEXCOORD_0":39
			},
			"indices":36,
			"material":1
		}]
	},
	{
		"name":"鞋皮",
		"primitives":[{
			"attributes":{
				"POSITION":41,
				"NORMAL":42,
				"TEXCOORD_0":43
			},
			"indices":40,
			"material":2
		}]
	},
	{
		"name":"外薄殼",
		"primitives":[{
			"attributes":{
				"POSITION":45,
				"NORMAL":46,
				"TEXCOORD_0":47
			},
			"indices":44,
			"material":3
		}]
	},
	{
		"name":"內側",
		"primitives":[{
			"attributes":{
				"POSITION":49,
				"NORMAL":50,
				"TEXCOORD_0":51
			},
			"indices":48,
			"material":4
		}]
	},
	{
		"name":"後飾",
		"primitives":[{
			"attributes":{
				"POSITION":53,
				"NORMAL":54,
				"TEXCOORD_0":55
			},
			"indices":52,
			"material":5
		}]
	},
	{
		"name":"上掀蓋",
		"primitives":[{
			"attributes":{
				"POSITION":57,
				"NORMAL":58,
				"TEXCOORD_0":59
			},
			"indices":56,
			"material":6
		}]
	},
	{
		"name":"小飾",
		"primitives":[{
			"attributes":{
				"POSITION":61,
				"NORMAL":62,
				"TEXCOORD_0":63
			},
			"indices":60,
			"material":7
		}]
	}],
	"images":[{
		"uri":"data:image/jpeg;base64,"
	},
	{
		"uri":"data:image/jpeg;base64,"
	},
	{
		"uri":"data:image/jpeg;base64,"
	},
	{
		"uri":"data:image/jpeg;base64,"
	},
	{
		"uri":"data:image/jpeg;base64,"
	},
	{
		"uri":"data:image/jpeg;base64,"
	},
	{
		"uri":"data:image/jpeg;base64,"
	}],
	"accessors":[{
		"bufferView":0,
		"type":"SCALAR",
		"componentType":5123,
		"count":984,
		"byteOffset":0,
		"min":[0],
		"max":[332]
	},
	{
		"bufferView":1,
		"type":"VEC3",
		"componentType":5126,
		"count":333,
		"byteOffset":0,
		"min":[5.778182506561279,
		29.88213539123535,
		20.62749671936035],
		"max":[18.20100212097168,
		35.15300750732422,
		24.704509735107423]
	},
	{
		"bufferView":1,
		"type":"VEC3",
		"componentType":5126,
		"count":333,
		"byteOffset":12,
		"min":[-0.9924063086509705,
		-0.9910938143730164,
		-0.999000072479248],
		"max":[0.9819688200950623,
		0.9903438091278076,
		0.999000072479248]
	},
	{
		"bufferView":1,
		"type":"VEC2",
		"componentType":5126,
		"count":333,
		"byteOffset":24,
		"min":[0.0032364679500460626,
		0.3030078411102295],
		"max":[1.0,
		0.7034095525741577]
	},
	{
		"bufferView":2,
		"type":"SCALAR",
		"componentType":5123,
		"count":1002,
		"byteOffset":0,
		"min":[0],
		"max":[380]
	},
	{
		"bufferView":3,
		"type":"VEC3",
		"componentType":5126,
		"count":381,
		"byteOffset":0,
		"min":[5.779289245605469,
		26.718585968017579,
		18.282970428466798],
		"max":[17.800643920898439,
		31.31022071838379,
		22.5595703125]
	},
	{
		"bufferView":3,
		"type":"VEC3",
		"componentType":5126,
		"count":381,
		"byteOffset":12,
		"min":[-0.9902500510215759,
		-0.9017500281333923,
		-0.9968438148498535],
		"max":[0.991312563419342,
		0.901593804359436,
		0.9968438148498535]
	},
	{
		"bufferView":3,
		"type":"VEC2",
		"componentType":5126,
		"count":381,
		"byteOffset":24,
		"min":[0.006641542539000511,
		0.3046332001686096],
		"max":[1.0,
		0.7016332149505615]
	},
	{
		"bufferView":4,
		"type":"SCALAR",
		"componentType":5123,
		"count":888,
		"byteOffset":0,
		"min":[0],
		"max":[306]
	},
	{
		"bufferView":5,
		"type":"VEC3",
		"componentType":5126,
		"count":307,
		"byteOffset":0,
		"min":[5.710940361022949,
		23.224685668945314,
		17.20767593383789],
		"max":[17.80438804626465,
		28.125585556030275,
		20.36856460571289]
	},
	{
		"bufferView":5,
		"type":"VEC3",
		"componentType":5126,
		"count":307,
		"byteOffset":12,
		"min":[-0.9916250705718994,
		-0.9903125762939453,
		-0.9992188215255737],
		"max":[0.9822500348091126,
		0.9903125762939453,
		0.9992188215255737]
	},
	{
		"bufferView":5,
		"type":"VEC2",
		"componentType":5126,
		"count":307,
		"byteOffset":24,
		"min":[0.003325020195916295,
		0.3230946660041809],
		"max":[1.0,
		0.683925986289978]
	},
	{
		"bufferView":6,
		"type":"SCALAR",
		"componentType":5123,
		"count":1056,
		"byteOffset":0,
		"min":[0],
		"max":[393]
	},
	{
		"bufferView":7,
		"type":"VEC3",
		"componentType":5126,
		"count":394,
		"byteOffset":0,
		"min":[5.711831569671631,
		20.311723709106447,
		14.903486251831055],
		"max":[17.22369956970215,
		24.42312240600586,
		18.71240234375]
	},
	{
		"bufferView":7,
		"type":"VEC3",
		"componentType":5126,
		"count":394,
		"byteOffset":12,
		"min":[-0.990656316280365,
		-0.9095000624656677,
		-0.9966562986373901],
		"max":[0.99156254529953,
		0.9095000624656677,
		0.9966562986373901]
	},
	{
		"bufferView":7,
		"type":"VEC2",
		"componentType":5126,
		"count":394,
		"byteOffset":24,
		"min":[0.07335810363292694,
		0.31166791915893557],
		"max":[1.0,
		0.6898715496063232]
	},
	{
		"bufferView":8,
		"type":"SCALAR",
		"componentType":5123,
		"count":1842,
		"byteOffset":0,
		"min":[0],
		"max":[643]
	},
	{
		"bufferView":9,
		"type":"VEC3",
		"componentType":5126,
		"count":644,
		"byteOffset":0,
		"min":[5.537550926208496,
		19.066823959350587,
		15.057313919067383],
		"max":[17.47119903564453,
		24.74260139465332,
		18.77463150024414]
	},
	{
		"bufferView":9,
		"type":"VEC3",
		"componentType":5126,
		"count":644,
		"byteOffset":12,
		"min":[-0.9845625758171082,
		-0.9647188186645508,
		-0.9987813234329224],
		"max":[0.9888125658035278,
		0.9647188186645508,
		0.9987813234329224]
	},
	{
		"bufferView":9,
		"type":"VEC2",
		"componentType":5126,
		"count":644,
		"byteOffset":24,
		"min":[0.009855691343545914,
		0.29841452836990359],
		"max":[1.0,
		0.7045580148696899]
	},
	{
		"bufferView":10,
		"type":"SCALAR",
		"componentType":5123,
		"count":1026,
		"byteOffset":0,
		"min":[0],
		"max":[355]
	},
	{
		"bufferView":11,
		"type":"VEC3",
		"componentType":5126,
		"count":356,
		"byteOffset":0,
		"min":[5.737398624420166,
		23.347728729248048,
		16.73855209350586],
		"max":[17.473102569580079,
		27.835216522216798,
		20.712594985961915]
	},
	{
		"bufferView":11,
		"type":"VEC3",
		"componentType":5126,
		"count":356,
		"byteOffset":12,
		"min":[-0.9915937781333923,
		-0.9863438010215759,
		-0.9971250295639038],
		"max":[0.9918750524520874,
		0.9860938191413879,
		0.998468816280365]
	},
	{
		"bufferView":11,
		"type":"VEC2",
		"componentType":5126,
		"count":356,
		"byteOffset":24,
		"min":[1.123397695677411e-16,
		0.31137609481811526],
		"max":[1.0,
		0.6978957653045654]
	},
	{
		"bufferView":12,
		"type":"SCALAR",
		"componentType":5123,
		"count":984,
		"byteOffset":0,
		"min":[0],
		"max":[367]
	},
	{
		"bufferView":13,
		"type":"VEC3",
		"componentType":5126,
		"count":368,
		"byteOffset":0,
		"min":[5.730256080627441,
		26.445556640625,
		18.79607582092285],
		"max":[18.030059814453126,
		31.7191219329834,
		22.804309844970704]
	},
	{
		"bufferView":13,
		"type":"VEC3",
		"componentType":5126,
		"count":368,
		"byteOffset":12,
		"min":[-0.9924375414848328,
		-0.916437566280365,
		-0.9918438196182251],
		"max":[0.9920312762260437,
		0.9166563153266907,
		0.9918438196182251]
	},
	{
		"bufferView":13,
		"type":"VEC2",
		"componentType":5126,
		"count":368,
		"byteOffset":24,
		"min":[0.0,
		0.3049074411392212],
		"max":[1.0,
		0.7037343978881836]
	},
	{
		"bufferView":14,
		"type":"SCALAR",
		"componentType":5123,
		"count":1794,
		"byteOffset":0,
		"min":[0],
		"max":[676]
	},
	{
		"bufferView":15,
		"type":"VEC3",
		"componentType":5126,
		"count":677,
		"byteOffset":0,
		"min":[5.79776668548584,
		30.220272064208986,
		19.965099334716798],
		"max":[18.232168197631837,
		35.05012893676758,
		25.305612564086915]
	},
	{
		"bufferView":15,
		"type":"VEC3",
		"componentType":5126,
		"count":677,
		"byteOffset":12,
		"min":[-0.9953125715255737,
		-0.9829375743865967,
		-0.9933750629425049],
		"max":[0.9962813258171082,
		0.9830625653266907,
		0.9933750629425049]
	},
	{
		"bufferView":15,
		"type":"VEC2",
		"componentType":5126,
		"count":677,
		"byteOffset":24,
		"min":[-1.3342760770170259e-16,
		0.29006510972976687],
		"max":[1.0,
		0.7181569337844849]
	},
	{
		"bufferView":16,
		"type":"SCALAR",
		"componentType":5123,
		"count":5202,
		"byteOffset":0,
		"min":[0],
		"max":[1448]
	},
	{
		"bufferView":17,
		"type":"VEC3",
		"componentType":5126,
		"count":1449,
		"byteOffset":0,
		"min":[2.173168182373047,
		-4.276803355907077e-9,
		-5.684341970784096e-15],
		"max":[23.929988861083986,
		58.85435104370117,
		10.106817245483399]
	},
	{
		"bufferView":17,
		"type":"VEC3",
		"componentType":5126,
		"count":1449,
		"byteOffset":12,
		"min":[-1.0,
		-1.0,
		-1.0],
		"max":[0.9999688267707825,
		0.9998750686645508,
		1.0]
	},
	{
		"bufferView":17,
		"type":"VEC2",
		"componentType":5126,
		"count":1449,
		"byteOffset":24,
		"min":[0.10071395337581635,
		0.01632339507341385],
		"max":[0.9017921090126038,
		0.9772347211837769]
	},
	{
		"bufferView":18,
		"type":"SCALAR",
		"componentType":5123,
		"count":8538,
		"byteOffset":0,
		"min":[0],
		"max":[3182]
	},
	{
		"bufferView":19,
		"type":"VEC3",
		"componentType":5126,
		"count":3183,
		"byteOffset":0,
		"min":[2.173168182373047,
		0.00807323306798935,
		-5.527830252546235e-20],
		"max":[23.929988861083986,
		58.85435104370117,
		10.103068351745606]
	},
	{
		"bufferView":19,
		"type":"VEC3",
		"componentType":5126,
		"count":3183,
		"byteOffset":12,
		"min":[-1.0,
		-1.0,
		-1.0],
		"max":[1.0,
		1.0,
		1.0]
	},
	{
		"bufferView":19,
		"type":"VEC2",
		"componentType":5126,
		"count":3183,
		"byteOffset":24,
		"min":[0.09697767347097397,
		0.0],
		"max":[0.9020594358444214,
		1.0]
	},
	{
		"bufferView":20,
		"type":"SCALAR",
		"componentType":5123,
		"count":19386,
		"byteOffset":0,
		"min":[0],
		"max":[5398]
	},
	{
		"bufferView":21,
		"type":"VEC3",
		"componentType":5126,
		"count":5399,
		"byteOffset":0,
		"min":[0.9604133367538452,
		0.36438021063804629,
		2.2952752113342287],
		"max":[23.937719345092775,
		56.400001525878909,
		24.5264892578125]
	},
	{
		"bufferView":21,
		"type":"VEC3",
		"componentType":5126,
		"count":5399,
		"byteOffset":12,
		"min":[-0.9999688267707825,
		-1.0,
		-1.0],
		"max":[0.9999688267707825,
		1.0,
		1.0]
	},
	{
		"bufferView":21,
		"type":"VEC2",
		"componentType":5126,
		"count":5399,
		"byteOffset":24,
		"min":[0.050202250480651858,
		0.00004701468424173072],
		"max":[0.9365708231925964,
		0.9989579916000366]
	},
	{
		"bufferView":22,
		"type":"SCALAR",
		"componentType":5123,
		"count":9201,
		"byteOffset":0,
		"min":[0],
		"max":[2555]
	},
	{
		"bufferView":23,
		"type":"VEC3",
		"componentType":5126,
		"count":2556,
		"byteOffset":0,
		"min":[0.8582248687744141,
		0.2701272666454315,
		2.2072110176086427],
		"max":[24.03672981262207,
		56.49999237060547,
		24.594541549682618]
	},
	{
		"bufferView":23,
		"type":"VEC3",
		"componentType":5126,
		"count":2556,
		"byteOffset":12,
		"min":[-0.9997813105583191,
		-0.999000072479248,
		-0.9280312657356262],
		"max":[0.9996875524520874,
		1.0,
		0.9642500281333923]
	},
	{
		"bufferView":23,
		"type":"VEC2",
		"componentType":5126,
		"count":2556,
		"byteOffset":24,
		"min":[0.04899238049983978,
		0.000918660662136972],
		"max":[0.9384371042251587,
		0.9998855590820313]
	},
	{
		"bufferView":24,
		"type":"SCALAR",
		"componentType":5123,
		"count":56574,
		"byteOffset":0,
		"min":[0],
		"max":[12215]
	},
	{
		"bufferView":25,
		"type":"VEC3",
		"componentType":5126,
		"count":12216,
		"byteOffset":0,
		"min":[1.3522406816482545,
		0.777576208114624,
		2.6857171058654787],
		"max":[23.51443099975586,
		56.005210876464847,
		24.527484893798829]
	},
	{
		"bufferView":25,
		"type":"VEC3",
		"componentType":5126,
		"count":12216,
		"byteOffset":12,
		"min":[-1.0,
		-1.0,
		-1.0],
		"max":[1.0,
		1.0,
		1.0]
	},
	{
		"bufferView":25,
		"type":"VEC2",
		"componentType":5126,
		"count":12216,
		"byteOffset":24,
		"min":[0.0,
		0.00018069299403578043],
		"max":[0.9997013807296753,
		0.9992853403091431]
	},
	{
		"bufferView":26,
		"type":"SCALAR",
		"componentType":5123,
		"count":2604,
		"byteOffset":0,
		"min":[0],
		"max":[840]
	},
	{
		"bufferView":27,
		"type":"VEC3",
		"componentType":5126,
		"count":841,
		"byteOffset":0,
		"min":[2.3831233978271486,
		41.5,
		1.2999999523162842],
		"max":[19.4057559967041,
		58.645538330078128,
		8.099326133728028]
	},
	{
		"bufferView":27,
		"type":"VEC3",
		"componentType":5126,
		"count":841,
		"byteOffset":12,
		"min":[-0.9999688267707825,
		-1.0,
		-0.9999688267707825],
		"max":[0.9999688267707825,
		0.9994375705718994,
		0.8405000567436218]
	},
	{
		"bufferView":27,
		"type":"VEC2",
		"componentType":5126,
		"count":841,
		"byteOffset":24,
		"min":[-1.5844140053279589e-17,
		0.20308053493499757],
		"max":[0.9985765218734741,
		0.8226454257965088]
	},
	{
		"bufferView":28,
		"type":"SCALAR",
		"componentType":5123,
		"count":1206,
		"byteOffset":0,
		"min":[0],
		"max":[343]
	},
	{
		"bufferView":29,
		"type":"VEC3",
		"componentType":5126,
		"count":344,
		"byteOffset":0,
		"min":[6.654877662658691,
		14.800000190734864,
		12.074604988098145],
		"max":[17.226133346557618,
		40.25665283203125,
		30.050334930419923]
	},
	{
		"bufferView":29,
		"type":"VEC3",
		"componentType":5126,
		"count":344,
		"byteOffset":12,
		"min":[-0.8245313167572022,
		-0.9865313172340393,
		-0.9417500495910645],
		"max":[0.8245313167572022,
		0.9106875658035278,
		0.9418125152587891]
	},
	{
		"bufferView":29,
		"type":"VEC2",
		"componentType":5126,
		"count":344,
		"byteOffset":24,
		"min":[0.0,
		0.0],
		"max":[1.0,
		1.0]
	},
	{
		"bufferView":30,
		"type":"SCALAR",
		"componentType":5123,
		"count":4224,
		"byteOffset":0,
		"min":[0],
		"max":[1205]
	},
	{
		"bufferView":31,
		"type":"VEC3",
		"componentType":5126,
		"count":1206,
		"byteOffset":0,
		"min":[1.6330187320709229,
		35.45466232299805,
		17.06718635559082],
		"max":[20.778554916381837,
		54.226318359375,
		25.050067901611329]
	},
	{
		"bufferView":31,
		"type":"VEC3",
		"componentType":5126,
		"count":1206,
		"byteOffset":12,
		"min":[-0.999750018119812,
		-0.9913750290870667,
		-0.9998750686645508],
		"max":[0.9980313181877136,
		0.999625027179718,
		0.9978438019752502]
	},
	{
		"bufferView":31,
		"type":"VEC2",
		"componentType":5126,
		"count":1206,
		"byteOffset":24,
		"min":[0.003060518763959408,
		0.0029493928886950018],
		"max":[1.0,
		1.0]
	}],
	"bufferViews":[{
		"buffer":0,
		"byteOffset":0,
		"byteLength":1968,
		"target":34963
	},
	{
		"buffer":0,
		"byteOffset":1968,
		"byteLength":10656,
		"target":34962,
		"byteStride":32
	},
	{
		"buffer":1,
		"byteOffset":0,
		"byteLength":2004,
		"target":34963
	},
	{
		"buffer":1,
		"byteOffset":2004,
		"byteLength":12192,
		"target":34962,
		"byteStride":32
	},
	{
		"buffer":2,
		"byteOffset":0,
		"byteLength":1776,
		"target":34963
	},
	{
		"buffer":2,
		"byteOffset":1776,
		"byteLength":9824,
		"target":34962,
		"byteStride":32
	},
	{
		"buffer":3,
		"byteOffset":0,
		"byteLength":2112,
		"target":34963
	},
	{
		"buffer":3,
		"byteOffset":2112,
		"byteLength":12608,
		"target":34962,
		"byteStride":32
	},
	{
		"buffer":4,
		"byteOffset":0,
		"byteLength":3684,
		"target":34963
	},
	{
		"buffer":4,
		"byteOffset":3684,
		"byteLength":20608,
		"target":34962,
		"byteStride":32
	},
	{
		"buffer":5,
		"byteOffset":0,
		"byteLength":2052,
		"target":34963
	},
	{
		"buffer":5,
		"byteOffset":2052,
		"byteLength":11392,
		"target":34962,
		"byteStride":32
	},
	{
		"buffer":6,
		"byteOffset":0,
		"byteLength":1968,
		"target":34963
	},
	{
		"buffer":6,
		"byteOffset":1968,
		"byteLength":11776,
		"target":34962,
		"byteStride":32
	},
	{
		"buffer":7,
		"byteOffset":0,
		"byteLength":3588,
		"target":34963
	},
	{
		"buffer":7,
		"byteOffset":3588,
		"byteLength":21664,
		"target":34962,
		"byteStride":32
	},
	{
		"buffer":8,
		"byteOffset":0,
		"byteLength":10404,
		"target":34963
	},
	{
		"buffer":8,
		"byteOffset":10404,
		"byteLength":46368,
		"target":34962,
		"byteStride":32
	},
	{
		"buffer":9,
		"byteOffset":0,
		"byteLength":17076,
		"target":34963
	},
	{
		"buffer":9,
		"byteOffset":17076,
		"byteLength":101856,
		"target":34962,
		"byteStride":32
	},
	{
		"buffer":10,
		"byteOffset":0,
		"byteLength":38772,
		"target":34963
	},
	{
		"buffer":10,
		"byteOffset":38772,
		"byteLength":172768,
		"target":34962,
		"byteStride":32
	},
	{
		"buffer":11,
		"byteOffset":0,
		"byteLength":18402,
		"target":34963
	},
	{
		"buffer":11,
		"byteOffset":18404,
		"byteLength":81792,
		"target":34962,
		"byteStride":32
	},
	{
		"buffer":12,
		"byteOffset":0,
		"byteLength":113148,
		"target":34963
	},
	{
		"buffer":12,
		"byteOffset":113148,
		"byteLength":390912,
		"target":34962,
		"byteStride":32
	},
	{
		"buffer":13,
		"byteOffset":0,
		"byteLength":5208,
		"target":34963
	},
	{
		"buffer":13,
		"byteOffset":5208,
		"byteLength":26912,
		"target":34962,
		"byteStride":32
	},
	{
		"buffer":14,
		"byteOffset":0,
		"byteLength":2412,
		"target":34963
	},
	{
		"buffer":14,
		"byteOffset":2412,
		"byteLength":11008,
		"target":34962,
		"byteStride":32
	},
	{
		"buffer":15,
		"byteOffset":0,
		"byteLength":8448,
		"target":34963
	},
	{
		"buffer":15,
		"byteOffset":8448,
		"byteLength":38592,
		"target":34962,
		"byteStride":32
	}],
	"materials":[{
		"pbrMetallicRoughness":{
			"baseColorFactor":[0.9,
			0.9,
			0.9,
			1.0],
			"metallicFactor":1.0,
			"roughnessFactor":0.5
		},
		"occlusionTexture":{
			"index":0,
			"strength":1.0
		},
		"emissiveFactor":[0.0,
		0.0,
		0.0],
		"alphaMode":"OPAQUE",
		"doubleSided":false,
		"name":"鞋帶"
	},
	{
		"pbrMetallicRoughness":{
			"baseColorFactor":[0.2,
			0.2,
			0.2,
			1.0],
			"metallicFactor":0.5,
			"roughnessFactor":0.5
		},
		"emissiveFactor":[0.0,
		0.0,
		0.0],
		"alphaMode":"OPAQUE",
		"doubleSided":false,
		"name":"鞋底"
	},
	{
		"pbrMetallicRoughness":{
			"baseColorFactor":[0.13999999999999997,
			0.7,
			0.6533333333333334,
			1.0],
			"metallicFactor":1.0,
			"roughnessFactor":0.3
		},
		"normalTexture":{
			"index":1,
			"scale":1.0
		},
		"occlusionTexture":{
			"index":2,
			"strength":1.0
		},
		"emissiveFactor":[0.0,
		0.0,
		0.0],
		"alphaMode":"OPAQUE",
		"doubleSided":false,
		"name":"鞋皮-2"
	},
	{
		"pbrMetallicRoughness":{
			"baseColorFactor":[0.9,
			0.5999999999999994,
			0.17999999999999997,
			0.30000000000000007],
			"metallicFactor":1.0,
			"roughnessFactor":0.3
		},
		"emissiveFactor":[0.0,
		0.0,
		0.0],
		"alphaMode":"BLEND",
		"doubleSided":false,
		"name":"外薄殼-1"
	},
	{
		"pbrMetallicRoughness":{
			"baseColorFactor":[0.81,
			0.9,
			0.8924999999999999,
			1.0],
			"metallicFactor":1.0,
			"roughnessFactor":0.5
		},
		"occlusionTexture":{
			"index":3,
			"strength":1.0
		},
		"emissiveFactor":[0.0,
		0.0,
		0.0],
		"alphaMode":"OPAQUE",
		"doubleSided":false,
		"name":"內側"
	},
	{
		"pbrMetallicRoughness":{
			"baseColorFactor":[0.1,
			0.1,
			0.1,
			1.0],
			"metallicFactor":1.0,
			"roughnessFactor":0.5
		},
		"occlusionTexture":{
			"index":4,
			"strength":1.0
		},
		"emissiveFactor":[0.0,
		0.0,
		0.0],
		"alphaMode":"OPAQUE",
		"doubleSided":false,
		"name":"後飾"
	},
	{
		"pbrMetallicRoughness":{
			"baseColorFactor":[0.2,
			0.2,
			0.2,
			1.0],
			"metallicFactor":0.5,
			"roughnessFactor":0.5000000000000001
		},
		"occlusionTexture":{
			"index":5,
			"strength":1.0
		},
		"emissiveFactor":[0.0,
		0.0,
		0.0],
		"alphaMode":"OPAQUE",
		"doubleSided":false,
		"name":"上掀蓋"
	},
	{
		"pbrMetallicRoughness":{
			"baseColorFactor":[0.9,
			0.7875000000000002,
			0.45,
			1.0],
			"metallicFactor":0.0,
			"roughnessFactor":0.5
		},
		"occlusionTexture":{
			"index":6,
			"strength":1.0
		},
		"emissiveFactor":[0.0,
		0.0,
		0.0],
		"alphaMode":"OPAQUE",
		"doubleSided":false,
		"name":"小飾"
	}],
	"buffers":[{
		"uri":"data:application/octet-stream;base64,",
		"byteLength":12624
	},
	{
		"uri":"data:application/octet-stream;base64,",
		"byteLength":14196
	},
	{
		"uri":"data:application/octet-stream;base64,",
		"byteLength":11600
	},
	{
		"uri":"data:application/octet-stream;base64,",
		"byteLength":14720
	},
	{
		"uri":"data:application/octet-stream;base64,",
		"byteLength":24292
	},
	{
		"uri":"data:application/octet-stream;base64,",
		"byteLength":13444
	},
	{
		"uri":"data:application/octet-stream;base64,",
		"byteLength":13744
	},
	{
		"uri":"data:application/octet-stream;base64,",
		"byteLength":25252
	},
	{
		"uri":"data:application/octet-stream;base64,",
		"byteLength":56772
	},
	{
		"uri":"data:application/octet-stream;base64,",
		"byteLength":118932
	},
	{
		"uri":"data:application/octet-stream;base64,",
		"byteLength":211540
	},
	{
		"uri":"data:application/octet-stream;base64,",
		"byteLength":100196
	},
	{
		"uri":"data:application/octet-stream;base64,",
		"byteLength":504060
	},
	{
		"uri":"data:application/octet-stream;base64,",
		"byteLength":32120
	},
	{
		"uri":"data:application/octet-stream;base64,",
		"byteLength":13420
	},
	{
		"uri":"data:application/octet-stream;base64,",
		"byteLength":47040
	}],
	"samplers":[{
		"magFilter":9729,
		"minFilter":9729,
		"wrapS":10497,
		"wrapT":10497
	},
	{
		"magFilter":9729,
		"minFilter":9729,
		"wrapS":10497,
		"wrapT":10497
	},
	{
		"magFilter":9729,
		"minFilter":9729,
		"wrapS":10497,
		"wrapT":10497
	},
	{
		"magFilter":9729,
		"minFilter":9729,
		"wrapS":10497,
		"wrapT":10497
	},
	{
		"magFilter":9729,
		"minFilter":9729,
		"wrapS":10497,
		"wrapT":10497
	},
	{
		"magFilter":9729,
		"minFilter":9729,
		"wrapS":10497,
		"wrapT":10497
	},
	{
		"magFilter":9729,
		"minFilter":9729,
		"wrapS":10497,
		"wrapT":10497
	}],
	"textures":[{
		"sampler":0,
		"source":0
	},
	{
		"sampler":1,
		"source":1
	},
	{
		"sampler":2,
		"source":2
	},
	{
		"sampler":3,
		"source":3
	},
	{
		"sampler":4,
		"source":4
	},
	{
		"sampler":5,
		"source":5
	},
	{
		"sampler":6,
		"source":6
	}]
}